HIERARCHY
ROOT SpineBase
{
  OFFSET 0.000000 0.000000 0.000000
  CHANNELS 6 Xposition Yposition Zposition Zrotation Xrotation Yrotation
  JOINT SpineMid
  {
    OFFSET -0.000000 32.641611 0.000000
    CHANNELS 3 Zrotation Xrotation Yrotation
    JOINT SpineShoulder
    {
      OFFSET 0.171044 24.323593 -0.601494
      CHANNELS 3 Zrotation Xrotation Yrotation
      JOINT Neck
      {
        OFFSET 0.187993 8.036304 -0.425473
        CHANNELS 3 Zrotation Xrotation Yrotation
        JOINT Head
        {
          OFFSET 0.898758 11.195902 5.978002
          CHANNELS 3 Zrotation Xrotation Yrotation
          End Site
          {
            OFFSET 0 0 0
          }
        }
      }
      JOINT ShoulderLeft
      {
        OFFSET 0.654785 -5.344106 -10.949771
        CHANNELS 3 Zrotation Xrotation Yrotation
        JOINT ElbowLeft
        {
          OFFSET 0.055332 -23.577965 -4.056424
          CHANNELS 3 Zrotation Xrotation Yrotation
          JOINT WristLeft
          {
            OFFSET 5.730801 -22.201893 1.268775
            CHANNELS 3 Zrotation Xrotation Yrotation
            JOINT HandLeft
            {
              OFFSET -0.680610 -5.654860 1.097161
              CHANNELS 3 Zrotation Xrotation Yrotation
              JOINT HandTipLeft
              {
                OFFSET 1.766094 -6.691288 1.060440
                CHANNELS 3 Zrotation Xrotation Yrotation
                End Site
                {
                  OFFSET 0 0 0
                }
              }
              JOINT ThumbLeft
              {
                OFFSET -0.245988 0.066877 -2.092693
                CHANNELS 3 Zrotation Xrotation Yrotation
                End Site
                {
                  OFFSET 0 0 0
                }
              }
            }
          }
        }
      }
      JOINT ShoulderRight
      {
        OFFSET -2.088769 -4.706513 -12.824632
        CHANNELS 3 Zrotation Xrotation Yrotation
        JOINT ElbowRight
        {
          OFFSET 3.374256 -23.991960 -2.551421
          CHANNELS 3 Zrotation Xrotation Yrotation
          JOINT WristRight
          {
            OFFSET 9.386744 -3.532307 20.835338
            CHANNELS 3 Zrotation Xrotation Yrotation
            JOINT HandRight
            {
              OFFSET -0.910814 -2.911886 1.220566
              CHANNELS 3 Zrotation Xrotation Yrotation
              JOINT HandTipRight
              {
                OFFSET 1.621139 0.817325 2.222533
                CHANNELS 3 Zrotation Xrotation Yrotation
                End Site
                {
                  OFFSET 0 0 0
                }
              }
              JOINT ThumbRight
              {
                OFFSET 0.963069 5.021345 1.288544
                CHANNELS 3 Zrotation Xrotation Yrotation
                End Site
                {
                  OFFSET 0 0 0
                }
              }
            }
          }
        }
      }
    }
  }
  JOINT HipLeft
  {
    OFFSET 4.211104 1.483929 -5.318945
    CHANNELS 3 Zrotation Xrotation Yrotation
    JOINT KneeLeft
    {
      OFFSET -9.270532 -35.652755 5.237490
      CHANNELS 3 Zrotation Xrotation Yrotation
      JOINT AnkleLeft
      {
        OFFSET -15.641220 -26.454188 1.692175
        CHANNELS 3 Zrotation Xrotation Yrotation
        JOINT FootLeft
        {
          OFFSET -3.446712 -3.220322 3.511550
          CHANNELS 3 Zrotation Xrotation Yrotation
          End Site
          {
            OFFSET 0 0 0
          }
        }
      }
    }
  }
  JOINT HipRight
  {
    OFFSET -2.690759 -0.354493 -1.484911
    CHANNELS 3 Zrotation Xrotation Yrotation
    JOINT KneeRight
    {
      OFFSET 4.807439 -30.771287 21.696446
      CHANNELS 3 Zrotation Xrotation Yrotation
      JOINT AnkleRight
      {
        OFFSET -8.020920 -25.869177 7.138052
        CHANNELS 3 Zrotation Xrotation Yrotation
        JOINT FootRight
        {
          OFFSET -3.653283 -3.878228 4.793066
          CHANNELS 3 Zrotation Xrotation Yrotation
          End Site
          {
            OFFSET 0 0 0
          }
        }
      }
    }
  }
}
MOTION
Frames: 6
Frame Time: 0.033333
-115.092940 64.226541 330.959931 0.000000 0.000000 -150.947522 0.000000 0.000000 150.947522 -0.000000 0.000000 0.000000 -0.000000 0.000000 0.000000 0.000000 0.000000 0.000000 -0.000000 0.000000 0.000000 -0.000000 0.000000 0.000000 -0.000000 0.000000 0.000000 -0.000000 0.000000 0.000000 0.000000 0.000000 0.000000 0.000000 0.000000 0.000000 -0.000000 0.000000 0.000000 -0.000000 0.000000 0.000000 -0.000000 0.000000 0.000000 -0.000000 0.000000 0.000000 0.000000 0.000000 0.000000 0.000000 0.000000 0.000000 0.000000 0.000000 150.947522 -0.000000 0.000000 0.000000 -0.000000 0.000000 0.000000 0.000000 0.000000 0.000000 0.000000 0.000000 150.947522 -0.000000 0.000000 0.000000 -0.000000 0.000000 0.000000 0.000000 0.000000 0.000000
-114.901677 63.779178 331.162226 0.255705 -0.168257 -158.198361 0.174927 -0.251189 158.199120 -0.000000 0.000000 0.000000 -0.000000 0.000000 0.000000 0.000000 0.000000 0.000000 -0.910739 -0.557212 0.151082 0.912247 0.554738 -0.159927 0.791215 2.027154 -0.104942 -0.791557 -0.905010 0.373558 0.000000 0.000000 0.000000 0.000000 0.000000 0.000000 3.618708 2.095896 -0.155380 -0.865426 -7.181890 2.199666 -0.418764 -27.014894 9.012508 12.891757 8.662917 -5.283626 0.000000 0.000000 0.000000 0.000000 0.000000 0.000000 1.421134 -1.465739 157.809750 1.612672 -0.653574 0.417242 14.360540 -7.591397 26.034603 0.000000 0.000000 0.000000 0.174927 -0.251189 158.199120 -0.000000 0.000000 0.000000 12.275983 0.557171 16.295109 0.000000 0.000000 0.000000
-114.745862 63.430988 331.316818 0.459129 -0.279138 -162.281287 0.352404 -0.405622 162.283653 -0.000000 0.000000 0.000000 -0.113956 0.853478 -0.006792 0.000000 0.000000 0.000000 -1.482709 -0.913999 0.241470 0.614097 1.601748 -0.117488 2.213886 2.800056 -0.311450 -1.341343 -1.578136 0.628539 0.000000 0.000000 0.000000 0.000000 0.000000 0.000000 6.307959 3.673139 -0.353253 -1.308837 -12.511704 4.097092 3.621069 -46.140262 18.923393 22.541970 9.803216 -12.861739 0.000000 0.000000 0.000000 0.000000 0.000000 0.000000 2.578793 -2.359451 161.633683 2.728931 -1.151011 0.731119 22.860478 -8.231099 39.796107 0.000000 0.000000 0.000000 0.767899 -1.569030 161.912918 -0.150152 -1.069726 0.145468 23.811477 4.973787 30.117582 0.000000 0.000000 0.000000
-114.625494 63.181971 331.423707 0.612922 -0.334787 -164.384051 0.500195 -0.487403 164.387969 -0.000000 0.000000 0.000000 -0.110668 1.191807 -0.035236 0.000000 0.000000 0.000000 -1.731026 -1.077362 0.279490 0.609408 1.974324 -0.113861 2.746297 3.456270 -0.411498 -1.628923 -1.994192 0.777481 0.000000 0.000000 0.000000 0.000000 0.000000 0.000000 8.019152 4.713141 -0.514185 -1.435432 -15.982325 5.490906 8.092224 -54.621765 26.332448 26.815393 8.018468 -16.496757 0.000000 0.000000 0.000000 0.000000 0.000000 0.000000 3.270331 -2.864704 163.585963 3.329744 -1.494277 0.926497 27.065567 -7.173222 46.057738 0.000000 0.000000 0.000000 1.366431 -2.148390 163.711197 0.051674 -1.440722 0.361912 31.307240 10.718682 38.753565 0.000000 0.000000 0.000000
-114.540572 63.032127 331.482894 0.718988 -0.336546 -164.956621 0.607023 -0.511600 164.961442 -0.000000 0.000000 0.000000 -0.067403 1.472004 -0.080759 0.000000 0.000000 0.000000 -1.663120 -1.051039 0.268859 0.399034 2.074944 -0.072102 2.886298 3.579708 -0.464800 -1.644857 -2.140475 0.828795 0.000000 0.000000 0.000000 0.000000 0.000000 0.000000 8.729642 5.214365 -0.585445 -1.334621 -17.649621 6.237097 10.813442 -57.832931 30.289671 28.477685 7.322254 -17.199367 0.000000 0.000000 0.000000 0.000000 0.000000 0.000000 3.415378 -3.066230 164.105860 3.401641 -1.684093 0.993302 28.993326 -5.587056 48.131719 0.000000 0.000000 0.000000 2.022132 -2.635374 163.897611 0.439197 -1.701492 0.679392 36.008859 16.453686 42.842892 0.000000 0.000000 0.000000
-114.491098 62.981455 331.494378 0.778555 -0.284997 -163.954255 0.669473 -0.489063 163.959049 -0.000000 0.000000 0.000000 0.015696 1.694546 -0.143522 0.000000 0.000000 0.000000 -1.278945 -0.835381 0.209025 -0.019370 1.905412 0.005766 2.636945 3.169525 -0.472036 -1.390328 -2.014846 0.784989 0.000000 0.000000 0.000000 0.000000 0.000000 0.000000 8.428588 5.176775 -0.542870 -1.056269 -17.553567 6.258736 11.518122 -58.295573 30.994660 28.783196 8.430435 -15.815101 0.000000 0.000000 0.000000 0.000000 0.000000 0.000000 2.978855 -2.987228 163.146751 2.935459 -1.718716 0.926412 29.379454 -3.363476 46.775406 0.000000 0.000000 0.000000 2.690876 -3.085011 162.425489 1.012532 -1.849416 1.100585 39.028462 22.055381 43.118553 0.000000 0.000000 0.000000
